# Blender v2.75 (sub 0) OBJ File: ''
# www.blender.org
mtllib pinata2.mtl
v -2.464709 0.086727 -0.040756
v -3.277212 0.115596 -0.336541
v -3.277212 0.115596 -1.065229
v -2.464709 0.086727 -1.361014
v -2.481208 1.031285 -1.431571
v -2.481208 1.031285 0.029800
v -2.487275 0.980999 -0.052051
v -2.487275 0.980999 -1.349719
v 0.642968 -1.085312 -0.992230
v 0.642968 -1.085312 -0.409541
v 0.060279 -1.085312 -0.409541
v 0.060279 -1.085312 -0.992230
v 0.663962 0.101061 0.048470
v -2.467494 0.963920 -1.432126
v -3.378211 0.590771 -1.065208
v -2.467468 0.962881 -1.432025
v -3.378211 0.590771 -0.336563
v -2.464709 -1.085312 -0.409541
v -2.464709 -1.085312 -0.992230
v -1.882020 -1.085312 -0.409541
v -1.882020 -1.085312 -0.992230
v -1.604442 1.051215 -1.356978
v -1.518756 1.131162 -0.977402
v -1.401241 0.690816 -0.763871
v -1.882020 -2.056461 -0.409541
v -2.464709 -2.056461 -0.409541
v -1.538940 1.101829 -0.422454
v -1.437405 0.818884 -0.407044
v -2.119899 1.072704 -0.978299
v 0.060279 -2.056461 -0.409541
v 0.060279 -2.056461 0.027477
v 0.060279 -1.085312 0.027477
v -2.288399 2.004633 0.030962
v -2.287980 2.006766 -0.416530
v -2.123117 1.079693 -0.406803
v -2.119460 1.051216 0.027477
v 0.060279 -2.056461 -0.992230
v 0.642968 -2.056461 -0.992230
v -1.882020 -1.085312 0.027477
v -2.000970 2.021679 -0.412042
v -1.999812 2.018512 0.027477
v -1.690379 1.161945 -0.159624
v -2.464709 -2.056461 0.027477
v -2.467494 0.963920 0.030355
v -2.467492 0.963839 0.030348
v -2.467468 0.962881 0.030255
v -1.299330 0.080067 0.027477
v -2.464709 -2.056461 -0.992230
v -2.464709 -2.056461 -1.429247
v -2.466915 1.052451 0.029788
v 0.642968 -2.056461 0.027477
v -2.466915 1.052451 -1.431559
v -1.882020 -1.085312 -1.429247
v -1.882020 -2.056461 -0.992230
v -1.882020 -2.056461 -1.429247
v -2.119460 1.051216 -1.429247
v -2.287963 2.006745 -0.985068
v -2.288399 2.004633 -1.432733
v 0.642968 -2.056461 -1.429247
v 0.663962 0.101061 -1.450241
v -1.882020 -2.056461 0.027477
v -1.999812 2.018512 -1.429247
v -2.000968 2.021673 -0.989540
v 0.642968 -2.056461 -0.409541
v 0.060279 -2.056461 -1.429247
v 0.060279 -1.085312 -1.429247
v -1.299330 0.080067 -1.429247
vt 0.778796 0.608931
vt 0.683845 0.643497
vt 0.683845 0.728653
vt 0.778796 0.763220
vt 0.161340 0.339787
vt 0.161340 0.510567
vt 0.155463 0.501001
vt 0.155463 0.349353
vt 0.683845 0.952713
vt 0.751940 0.952713
vt 0.751940 0.884618
vt 0.683845 0.884618
vt 0.493406 0.848242
vt 0.442215 0.708721
vt 0.493406 0.663816
vt 0.153467 0.339723
vt 0.329184 0.358979
vt 0.321411 0.361011
vt 0.329184 0.475764
vt 0.321301 0.361062
vt 0.907470 0.000766
vt 0.907470 0.085917
vt 0.963000 0.085920
vt 0.963000 0.000763
vt 0.345749 0.667489
vt 0.334121 0.723056
vt 0.440689 0.766206
vt 0.440689 0.663816
vt 0.193218 0.927118
vt 0.125123 0.927118
vt 0.193218 0.995212
vt 0.563027 0.979477
vt 0.563027 0.911383
vt 0.494932 0.911383
vt 0.334121 0.594195
vt 0.561102 0.662289
vt 0.561102 0.594195
vt 0.547799 0.840235
vt 0.547799 0.663816
vt 0.494932 0.797317
vt 0.645641 0.237683
vt 0.614622 0.204627
vt 0.645641 0.156579
vt 0.805280 0.488618
vt 0.805280 0.556713
vt 0.918771 0.556713
vt 0.918771 0.488618
vt 0.750400 0.782205
vt 0.778538 0.764746
vt 0.778538 0.840736
vt 0.927349 0.911336
vt 0.975839 0.860503
vt 0.975839 0.954465
vt 0.779077 0.956605
vt 0.830148 0.956605
vt 0.830148 0.843114
vt 0.779077 0.843114
vt 0.927047 0.747557
vt 0.874751 0.747499
vt 0.876284 0.855834
vt 0.927047 0.858976
vt 0.125123 0.871354
vt 0.125123 0.803260
vt 0.238614 0.803260
vt 0.238614 0.871354
vt 0.173708 0.715453
vt 0.173708 0.630301
vt 0.278534 0.587487
vt 0.278534 0.758267
vt 0.855105 0.254435
vt 0.805280 0.265646
vt 0.855105 0.487091
vt 0.837048 0.000763
vt 0.787223 0.011974
vt 0.837048 0.233420
vt 0.434376 0.767733
vt 0.434376 0.819097
vt 0.334121 0.797954
vt 0.803753 0.607404
vt 0.803753 0.254435
vt 0.803742 0.254557
vt 0.795541 0.356954
vt 0.898895 0.369811
vt 0.932436 0.369318
vt 0.932436 0.421613
vt 0.898712 0.421174
vt 0.052223 0.642995
vt 0.037257 0.601295
vt 0.123597 0.550516
vt 0.920298 0.453218
vt 0.966870 0.556713
vt 0.966870 0.432260
vt 0.610063 0.543124
vt 0.562629 0.658182
vt 0.610063 0.793709
vt 0.163084 0.522440
vt 0.163084 0.512093
vt 0.153467 0.520382
vt 0.334121 0.662289
vt 0.914474 0.558239
vt 0.805280 0.578206
vt 0.914474 0.591825
vt 0.393552 0.897977
vt 0.280061 0.829882
vt 0.393552 0.829882
vt 0.975775 0.505007
vt 0.983979 0.607404
vt 0.983979 0.254557
vt 0.172182 0.692692
vt 0.172182 0.339723
vt 0.172170 0.692570
vt 0.384579 0.983609
vt 0.280061 0.958455
vt 0.384579 0.952101
vt 0.224461 0.800399
vt 0.173708 0.800309
vt 0.224461 0.759793
vt 0.173708 0.162862
vt 0.332594 0.000763
vt 0.318633 0.209564
vt 0.000763 0.153283
vt 0.172182 0.000763
vt 0.146225 0.208414
vt 0.172182 0.338196
vt 0.838574 0.100423
vt 0.905943 0.111768
vt 0.905943 0.000763
vt 0.163813 0.339789
vt 0.319774 0.529756
vt 0.319774 0.358979
vt 0.311424 0.368543
vt 0.000763 0.667949
vt 0.874751 0.860503
vt 0.925822 0.860503
vt 0.925822 0.973994
vt 0.874751 0.973994
vt 0.332594 0.357452
vt 0.331618 0.721924
vt 0.280061 0.726795
vt 0.331628 0.587487
vt 0.243211 0.794371
vt 0.278534 0.759793
vt 0.278534 0.888101
vt 0.393552 0.950574
vt 0.393552 0.899503
vt 0.280061 0.950574
vt 0.752574 0.493962
vt 0.647749 0.000763
vt 0.510782 0.111955
vt 0.647749 0.155052
vt 0.125123 0.872881
vt 0.127386 0.925591
vt 0.236543 0.925315
vt 0.236543 0.872999
vt 0.332226 0.531282
vt 0.332226 0.580712
vt 0.311424 0.554947
vt 0.401105 0.928776
vt 0.434376 0.820624
vt 0.434376 0.934526
vt 0.331628 0.828356
vt 0.923177 0.722422
vt 0.974248 0.608931
vt 0.974248 0.722422
vt 0.163813 0.510565
vt 0.509255 0.252908
vt 0.334121 0.251204
vt 0.457083 0.113752
vt 0.509255 0.000763
vt 0.321301 0.479873
vt 0.331320 0.477290
vt 0.331320 0.519222
vt 0.681322 0.254435
vt 0.681322 0.607404
vt 0.613123 0.493976
vt 0.608423 0.909856
vt 0.494932 0.909856
vt 0.608423 0.841762
vt 0.873225 0.860148
vt 0.831675 0.854501
vt 0.873225 0.608931
vt 0.856632 0.427179
vt 0.890356 0.426738
vt 0.890356 0.479054
vt 0.856817 0.478564
vt 0.945937 0.113294
vt 0.945937 0.237747
vt 0.899364 0.216789
vt 0.998534 0.113294
vt 0.947463 0.113294
vt 0.947463 0.181389
vt 0.998534 0.181389
vt 0.785696 0.252908
vt 0.733523 0.139920
vt 0.785696 0.000763
vt 0.748874 0.764746
vt 0.748874 0.883091
vt 0.683845 0.792190
vt 0.961891 0.747499
vt 0.961891 0.858406
vt 0.928574 0.751721
vt 0.947463 0.182915
vt 0.947463 0.251010
vt 0.998534 0.251010
vt 0.998534 0.182915
vt 0.682318 0.609594
vt 0.614227 0.608931
vt 0.613123 0.722416
vt 0.051834 0.931142
vt 0.000763 0.931142
vt 0.000763 0.999237
vt 0.051834 0.999237
vt 0.557107 0.663816
vt 0.557107 0.780600
vt 0.549334 0.665848
vt 0.856632 0.307404
vt 0.897185 0.254435
vt 0.897185 0.425212
vt 0.863751 0.861675
vt 0.863751 0.928385
vt 0.831675 0.886572
vt 0.151940 0.339723
vt 0.000763 0.512326
vt 0.151940 0.548989
vt 0.682318 0.861739
vt 0.053361 0.931142
vt 0.053361 0.999237
vt 0.104432 0.999237
vt 0.104432 0.931142
vt 0.864347 0.117581
vt 0.838574 0.236950
vt 0.897837 0.226449
vt 0.777550 0.967706
vt 0.756168 0.906386
vt 0.777550 0.843114
vt 0.613095 0.251589
vt 0.510782 0.247632
vt 0.613095 0.156579
vt 0.874751 0.640921
vt 0.921651 0.608931
vt 0.921651 0.745893
vt 0.921571 0.745972
vt 0.549326 0.665852
vt 0.114254 0.790373
vt 0.000763 0.790373
vt 0.000763 0.722279
vt 0.114254 0.722279
vt 0.163070 0.514567
vt 0.114254 0.859994
vt 0.114254 0.791900
vt 0.000763 0.791900
vt 0.000763 0.859994
vt 0.123597 0.720752
vt 0.010106 0.712307
vt 0.731996 0.000763
vt 0.672178 0.007411
vt 0.649276 0.124146
vt 0.309897 0.585961
vt 0.309897 0.358979
vt 0.173708 0.427074
vt 0.731996 0.251980
vt 0.475582 0.356809
vt 0.611596 0.254435
vt 0.611596 0.541597
vt 0.334121 0.359760
vt 0.474055 0.254435
vt 0.474055 0.541597
vt 0.613123 0.976756
vt 0.664194 0.976756
vt 0.664194 0.863265
vt 0.613123 0.863265
vt 0.897837 0.113294
vt 0.751048 0.607404
vt 0.751048 0.254435
vt 0.682849 0.493976
vt 0.114254 0.929615
vt 0.114254 0.861521
vt 0.000763 0.929615
vt 0.166673 0.550516
vt 0.125123 0.796086
vt 0.166673 0.801733
vt 0.225988 0.762376
vt 0.236006 0.801725
vt 0.236006 0.759793
vt 0.780323 0.620142
vt 0.830148 0.841587
vt 0.830148 0.608931
vt 0.334121 0.543124
vt 0.949982 0.367791
vt 0.898712 0.364331
vt 0.905051 0.260447
vt 0.949982 0.254435
vt 0.194745 0.991692
vt 0.263001 0.927118
vt 0.263001 0.993905
vt 0.442215 0.849768
vt 0.493286 0.849768
vt 0.493286 0.963259
vt 0.442215 0.963259
vn -0.938000 -0.242000 0.248100
vn -0.606800 -0.648800 0.459200
vn -0.606800 -0.648800 -0.459200
vn -0.938000 -0.242000 -0.248100
vn 0.339900 0.695500 -0.633000
vn 0.339900 0.695500 0.633000
vn 0.221200 0.966900 0.126700
vn 0.221200 0.966900 -0.126700
vn 0.898900 -0.310500 0.309200
vn 0.898900 -0.310500 -0.309200
vn -0.301500 -0.904500 -0.301500
vn -0.301500 -0.904500 0.301500
vn 0.576200 0.573200 0.582600
vn -0.189700 0.007800 -0.981800
vn -0.818900 0.344800 -0.458800
vn -0.881400 -0.061400 -0.468300
vn -0.818900 0.344800 0.458700
vn -0.904500 -0.301500 -0.301500
vn -0.904500 -0.301500 0.301500
vn 0.301500 -0.904500 -0.301500
vn 0.301500 -0.904500 0.301500
vn 0.664900 0.219100 -0.714000
vn 0.830700 0.548500 0.095400
vn 0.973500 0.224100 -0.045200
vn 0.577300 -0.577300 -0.577300
vn -0.577300 -0.577300 -0.577300
vn 0.769800 0.637100 0.038300
vn 0.935800 0.304400 0.177700
vn -0.362800 0.873000 0.325900
vn -0.577300 -0.577300 0.577300
vn -0.309200 -0.307100 0.900000
vn -0.639200 0.508600 0.576800
vn -0.637300 0.509500 -0.578100
vn -0.381900 0.860400 -0.337400
vn -0.114000 0.304800 0.945500
vn 0.577300 -0.577300 0.577300
vn 0.302300 -0.301800 0.904100
vn 0.441300 0.677200 -0.588700
vn 0.464300 0.649000 0.602700
vn 0.693800 0.287600 0.660200
vn -0.577400 -0.577400 0.577200
vn -0.189300 0.008400 0.981900
vn -0.881000 -0.066200 0.468400
vn -0.881600 -0.061600 0.467900
vn 0.284200 0.389300 0.876200
vn -0.577400 -0.577400 -0.577200
vn -0.529100 0.591400 0.608400
vn 0.576300 -0.579500 0.576200
vn -0.527100 0.594200 -0.607500
vn 0.302300 -0.301800 -0.904100
vn -0.220200 0.263400 -0.939200
vn -0.638600 0.514200 0.572600
vn -0.638900 0.509400 -0.576400
vn 0.576300 -0.579500 -0.576200
vn 0.576200 0.573200 -0.582600
vn 0.409800 0.678000 -0.610200
vn 0.393000 0.701000 0.595000
vn -0.309200 -0.307100 -0.900000
vn 0.288400 0.383300 -0.877400
usemtl Material.001
s 1
f 1/1/1 2/2/2 3/3/3
f 1/1/1 3/3/3 4/4/4
f 5/5/5 6/6/6 7/7/7
f 5/5/5 7/7/7 8/8/8
f 9/9/9 10/10/10 11/11/11
f 9/9/9 11/11/11 12/12/12
f 13/13/13 10/14/10 9/15/9
f 5/5/5 8/8/8 14/16/14
f 5/17/5 14/18/14 15/19/15
f 16/20/16 15/19/15 14/18/14
f 17/21/17 15/22/15 3/23/3
f 17/21/17 3/23/3 2/24/2
f 3/25/3 15/26/15 16/27/16
f 3/25/3 16/27/16 4/28/4
f 18/29/18 19/30/19 20/31/20
f 19/32/19 21/33/21 20/34/20
f 12/35/12 20/36/20 21/37/21
f 18/38/18 4/39/4 19/40/19
f 22/41/22 23/42/23 24/43/24
f 18/44/18 20/45/20 25/46/25
f 18/44/18 25/46/25 26/47/26
f 27/48/27 28/49/28 23/50/23
f 23/51/23 29/52/29 27/53/27
f 30/54/26 31/55/30 32/56/31
f 30/54/26 32/56/31 11/57/11
f 33/58/32 34/59/33 35/60/34
f 33/58/32 35/60/34 36/61/35
f 9/62/9 12/63/12 37/64/30
f 9/62/9 37/64/30 38/65/36
f 15/66/15 17/67/17 6/68/6
f 15/66/15 6/68/6 5/69/5
f 11/70/11 32/71/31 39/72/37
f 39/73/37 20/74/20 11/75/11
f 40/76/38 41/77/39 42/78/40
f 43/79/41 44/80/42 45/80/43
f 43/79/41 45/80/43 46/81/44
f 43/79/41 46/81/44 1/82/1
f 40/83/38 34/84/33 33/85/32
f 40/83/38 33/85/32 41/86/39
f 24/87/24 28/88/28 47/89/45
f 48/90/30 19/91/19 49/92/46
f 49/93/46 19/94/19 4/95/4
f 44/96/42 50/97/47 7/98/7
f 12/35/12 11/99/11 20/36/20
f 40/100/38 35/101/34 34/102/33
f 51/103/48 32/104/31 31/105/30
f 4/106/4 16/107/16 49/108/46
f 14/109/14 49/110/46 16/111/16
f 27/112/27 40/113/38 42/114/40
f 36/115/35 35/116/34 50/117/47
f 39/118/37 32/119/31 47/120/45
f 13/121/13 47/122/45 32/123/31
f 13/121/13 32/123/31 51/124/48
f 27/125/27 35/126/34 40/127/38
f 14/16/14 8/8/8 52/128/49
f 50/129/47 52/130/49 8/131/8
f 24/87/24 23/132/23 28/88/28
f 53/133/50 21/134/21 54/135/36
f 53/133/50 54/135/36 55/136/25
f 39/118/37 47/120/45 36/137/35
f 42/138/40 36/139/35 47/140/45
f 28/141/28 42/142/40 47/143/45
f 26/144/26 43/145/41 18/146/18
f 43/79/41 1/82/1 18/147/18
f 4/148/4 18/149/18 1/150/1
f 56/151/51 29/152/29 57/153/52
f 56/151/51 57/153/52 58/154/53
f 42/155/40 28/156/28 27/157/27
f 33/158/32 36/159/35 41/160/39
f 42/138/40 41/161/39 36/139/35
f 59/162/54 9/163/9 38/164/36
f 8/8/8 7/7/7 50/165/47
f 60/166/55 13/167/13 9/168/9
f 60/166/55 9/168/9 59/169/54
f 50/170/47 44/171/42 36/172/35
f 44/173/42 43/174/41 39/175/37
f 61/176/36 39/177/37 43/178/41
f 36/179/35 44/180/42 39/181/37
f 62/182/56 58/183/53 57/184/52
f 62/182/56 57/184/52 63/185/57
f 10/186/10 51/187/48 64/188/25
f 37/189/30 65/190/26 59/191/54
f 37/189/30 59/191/54 38/192/36
f 51/193/48 10/194/10 13/195/13
f 23/196/23 63/197/57 29/198/29
f 57/199/52 29/200/29 63/201/57
f 49/202/46 55/203/25 54/204/36
f 49/202/46 54/204/36 48/205/30
f 59/206/54 65/207/26 66/208/58
f 31/209/30 30/210/26 64/211/25
f 31/209/30 64/211/25 51/212/48
f 6/213/6 17/214/17 44/215/42
f 29/216/29 52/217/49 50/218/47
f 52/219/49 29/220/29 56/221/51
f 67/222/59 60/223/55 66/224/58
f 59/206/54 66/208/58 60/225/55
f 26/226/26 25/227/25 61/228/36
f 26/226/26 61/228/36 43/229/41
f 62/230/56 22/231/22 56/232/51
f 50/233/47 35/234/34 29/235/29
f 1/236/1 46/237/44 2/238/2
f 17/239/17 2/240/2 46/241/44
f 17/239/17 46/241/44 45/242/43
f 45/243/43 44/215/42 17/214/17
f 54/244/36 21/245/21 19/246/19
f 54/244/36 19/246/19 48/247/30
f 6/248/6 44/96/42 7/98/7
f 64/249/25 30/250/26 11/251/11
f 64/249/25 11/251/11 10/252/10
f 24/87/24 67/253/59 22/254/22
f 56/255/51 22/256/22 67/257/59
f 66/258/58 53/259/50 67/260/59
f 56/255/51 67/257/59 53/261/50
f 67/262/59 47/263/45 60/264/55
f 13/265/13 60/266/55 47/267/45
f 65/268/26 37/269/30 12/270/12
f 65/268/26 12/270/12 66/271/58
f 58/272/53 62/230/56 56/232/51
f 49/273/46 14/274/14 53/275/50
f 55/276/25 49/277/46 53/278/50
f 53/279/50 14/280/14 56/281/51
f 52/282/49 56/283/51 14/284/14
f 24/87/24 47/89/45 67/253/59
f 53/285/50 66/286/58 21/287/21
f 12/35/12 21/37/21 66/288/58
f 62/289/56 63/290/57 23/291/23
f 62/289/56 23/291/23 22/292/22
f 27/293/27 29/294/29 35/295/34
f 20/296/20 39/297/37 61/298/36
f 20/296/20 61/298/36 25/299/25
